<?xml version="1.0" encoding="UTF-8"?>
<!-- Generator: Adobe Illustrator 24.1.3, SVG Export Plug-In . SVG Version: 6.00 Build 0)  -->
<svg xmlns="http://www.w3.org/2000/svg" xmlns:xlink="http://www.w3.org/1999/xlink" version="1.1" id="Layer_1" x="0px" y="0px" viewBox="0 0 141 110" style="enable-background:new 0 0 141 110;" xml:space="preserve">
<style type="text/css">
	.st0{fill:#E5E5E8;}
	.st1{fill:#FFFFFF;}
	.st2{fill:#FFA891;}
	.st3{fill:#2C4141;}
	.st4{enable-background:new    ;}
</style>
<g>
	<ellipse id="Ellipse_98" class="st0" cx="62.5" cy="55" rx="54.5" ry="55"></ellipse>
	<rect id="Rectangle_175" x="31.6" y="60.8" class="st1" width="99" height="30"></rect>
	<g id="Group_480" transform="translate(920.599 1422.091)">
		<path id="Path_599" class="st2" d="M-844.4-1369.7h-6c-6.8,0-12.3-5.5-12.3-12.3c0-6.8,5.5-12.3,12.3-12.3h6    c6.8,0,12.3,5.5,12.3,12.3c0,0.9-0.8,1.7-1.7,1.7s-1.7-0.8-1.7-1.7c0-4.9-4-8.9-8.9-8.9h-6c-4.9,0.1-8.9,4.1-8.9,9    c0.1,4.9,4,8.8,8.9,8.9h6c2.7,0,5.3-1.2,7-3.3c0.6-0.7,1.6-0.8,2.4-0.3c0.7,0.6,0.8,1.6,0.3,2.4    C-837.1-1371.4-840.6-1369.7-844.4-1369.7z"></path>
		<path id="Path_600" class="st3" d="M-846.6-1359.4h-21.3c-6.6,0-12.9-2.5-17.7-7l-2.6-2.4c-1.5-1.4-1.6-3.8-0.2-5.4    c0.1-0.1,0.1-0.1,0.2-0.2l2.6-2.4c4.8-4.5,11.1-7,17.7-7h1.5c0.9,0,1.7,0.8,1.7,1.7s-0.8,1.7-1.7,1.7h-1.5    c-5.7,0-11.2,2.2-15.4,6.1l-2.6,2.4c-0.2,0.2-0.2,0.4,0,0.6c0,0,0,0,0,0l2.6,2.4c4.2,3.9,9.7,6.1,15.4,6.1h21.3    c5.6,0,8.2-1.1,12.5-4.2c0.8-0.5,1.8-0.4,2.4,0.4c0.5,0.8,0.4,1.8-0.4,2.4C-836.8-1360.9-840-1359.4-846.6-1359.4z"></path>
		<path id="Path_601" class="st2" d="M-830.1-1383.1h-4c-0.9,0-1.7-0.8-1.7-1.7s0.8-1.7,1.7-1.7l0,0h4c1.2,0,2.4-0.5,3.3-1.4    l4.5-5.8c0,0,0.1-0.1,0.1-0.1c2.8-2.9,7-4,10.8-2.7c0,0,0.1,0,0.1,0l11.2,4.6c5.2,1.6,8.3,2.1,14.1,1.2l4.3-0.7    c0.9-0.2,1.8,0.5,1.9,1.4c0.2,0.9-0.5,1.8-1.4,1.9l0,0l-4.3,0.7c-6.5,1.1-10.1,0.5-15.8-1.3c0,0-0.1,0-0.1,0l-11.2-4.6    c-2.6-0.8-5.4-0.1-7.3,1.8l-4.5,5.8c0,0-0.1,0.1-0.1,0.1C-825.8-1384-827.9-1383.1-830.1-1383.1z"></path>
		<path id="Path_602" class="st2" d="M-781.3-1359.4h-40c-4,0-7.5-2.8-8.4-6.7l-0.2-1.1c-0.4-2-1.8-3.6-3.7-4.3l-3.8-1.5    c-0.9-0.3-1.3-1.3-0.9-2.2s1.3-1.3,2.2-0.9l3.8,1.5c2.9,1.2,5,3.7,5.7,6.7l0.2,1.1c0.5,2.4,2.7,4.1,5.1,4.1h40    c0.9,0,1.7,0.8,1.7,1.7S-780.4-1359.4-781.3-1359.4L-781.3-1359.4z"></path>
		<path id="Path_603" class="st3" d="M-781.3-1331.1h-103.9c-3.2,0-5.8-2.6-5.8-5.8v-20c0-3.2,2.6-5.8,5.8-5.8h103.9    c0.9,0,1.7,0.8,1.7,1.7s-0.8,1.7-1.7,1.7h-103.9c-1.4,0-2.5,1.1-2.5,2.5v20c0,1.4,1.1,2.5,2.5,2.5h103.9c0.9,0,1.7,0.8,1.7,1.7    C-779.6-1331.8-780.4-1331.1-781.3-1331.1L-781.3-1331.1z"></path>
		<path id="Path_604" class="st3" d="M-781.3-1352.5h-102.5c-0.9,0-1.7-0.8-1.7-1.7c0-0.9,0.8-1.7,1.7-1.7h102.5    c0.9,0,1.7,0.8,1.7,1.7C-779.6-1353.3-780.4-1352.5-781.3-1352.5L-781.3-1352.5L-781.3-1352.5z"></path>
		<path id="Path_605" class="st2" d="M-793.8-1387L-793.8-1387l-19-0.6c-0.9,0-1.7-0.8-1.6-1.7s0.8-1.7,1.7-1.6l18.9,0.6    c0.9,0,1.7,0.8,1.7,1.7C-792.1-1387.8-792.9-1387-793.8-1387L-793.8-1387z"></path>
	</g>
	<g class="st4">
		<path class="st3" d="M2.1,23.1h4.6c0.1,1.4,1.1,2.5,2.8,2.5c1.8,0,2.9-1.2,2.9-2.7c0-1.4-1.1-2.7-3-2.7H6.4v-3.8l4.5-4.1v-0.2H2.5    V7.6H17V12l-4.7,4.2v0.2c3,0.6,5.2,3.2,5.2,6.6c0,4-2.9,7.5-7.9,7.5C4.7,30.4,2.1,26.8,2.1,23.1z"></path>
		<path class="st3" d="M21.2,23v-8.3c0-4.8,3.9-7.5,7.8-7.5c4,0,7.9,2.7,7.9,7.5V23c0,4.8-3.9,7.5-7.9,7.5    C25.1,30.4,21.2,27.7,21.2,23z M31.8,22.6V15c0-1.9-1.2-3-2.8-3c-1.6,0-2.8,1.2-2.8,3v7.7c0,1.9,1.2,3,2.8,3    C30.7,25.6,31.8,24.5,31.8,22.6z"></path>
	</g>
</g>
</svg>
