<?xml version="1.0" encoding="UTF-8"?>
<svg xmlns="http://www.w3.org/2000/svg" width="118.768" height="106" viewBox="0 0 118.768 106">
  <g id="Group_1150" data-name="Group 1150" transform="translate(-912 -96)">
    <circle id="Ellipse_153" data-name="Ellipse 153" cx="53" cy="53" r="53" transform="translate(912 96)" fill="#e5e5e8"></circle>
    <g id="Group_1149" data-name="Group 1149" transform="translate(-1102.002 -1796.716)">
      <path id="Path_926" data-name="Path 926" d="M2101.01,1931.285h13.852l6.283,2.855,4.273,6.328,4.822,8.3v17.13l-4.18,2.063-2.187-3.229-4.533-5.885L2113.6,1957l-8.492,1.171-5.848,4.818-1.932,4.235H2080.59l-5.707-8.376-10.8-1.849-9.322,5.366-2.508,5.6-3.395-.737-2.082-3.548v-17.7l50.559.723,3.678-2.611Z" fill="#fff"></path>
      <g id="Group_1145" data-name="Group 1145" transform="translate(2045.241 1928.781)">
        <path id="Path_922" data-name="Path 922" d="M2127.382,2053.567h-2.057a1.768,1.768,0,0,1-1.7-1.286,12.637,12.637,0,0,0-24.309,0,1.768,1.768,0,0,1-1.7,1.286H2080.4a1.767,1.767,0,0,1-1.7-1.286,12.637,12.637,0,0,0-24.309,0,1.767,1.767,0,0,1-1.7,1.286h-2.058a5.393,5.393,0,0,1-5.387-5.386v-17.793c0-.976.771,0,1.747,0s1.788-.976,1.788,0c0,1,.848-1.044,1.851-1.044h47.038a1.876,1.876,0,0,0,1.852-1.852v-12.619a1.768,1.768,0,0,1,1.743-1.767l13.17-.182h.059c2.622,0,6.57,2.379,7.994,4.354l6.752,9.373a19.159,19.159,0,0,1,3.535,10.961v10.57A5.393,5.393,0,0,1,2127.382,2053.567Zm-.781-3.535h.781a1.876,1.876,0,0,0,1.852-1.851v-10.57a15.547,15.547,0,0,0-2.868-8.894l-6.752-9.373a9.136,9.136,0,0,0-5.114-2.885h-.021l-11.427.158v9.839a5.609,5.609,0,0,1-5.387,5.634l-46.893-.5a6.3,6.3,0,0,1-2,0v16.6a1.876,1.876,0,0,0,1.851,1.851h.781a16.173,16.173,0,0,1,30.264,0h14.666a16.173,16.173,0,0,1,30.264,0Z" transform="translate(-2045.241 -2012.923)" fill="#2c4141"></path>
      </g>
      <g id="Group_1146" data-name="Group 1146" transform="translate(2102.269 1963.137)">
        <path id="Path_923" data-name="Path 923" d="M2280.286,2167.38a9.2,9.2,0,1,1,9.2-9.2A9.211,9.211,0,0,1,2280.286,2167.38Zm0-14.866a5.665,5.665,0,1,0,5.666,5.665A5.671,5.671,0,0,0,2280.286,2152.514Z" transform="translate(-2271.086 -2148.979)" fill="#2c4141"></path>
      </g>
      <g id="Group_1147" data-name="Group 1147" transform="translate(2057.34 1963.137)">
        <path id="Path_924" data-name="Path 924" d="M2102.355,2167.38a9.2,9.2,0,1,1,9.2-9.2A9.211,9.211,0,0,1,2102.355,2167.38Zm0-14.866a5.665,5.665,0,1,0,5.665,5.665A5.672,5.672,0,0,0,2102.355,2152.514Z" transform="translate(-2093.154 -2148.979)" fill="#2c4141"></path>
      </g>
      <g id="Group_1148" data-name="Group 1148" transform="translate(2045.241 1900.357)">
        <path id="Path_925" data-name="Path 925" d="M2097.666,1948.332h-52.731a5.393,5.393,0,0,1-5.387-5.386v-37.2a5.393,5.393,0,0,1,5.387-5.387h52.731a5.393,5.393,0,0,1,5.387,5.387v37.2A5.393,5.393,0,0,1,2097.666,1948.332Zm-52.731-44.44a1.854,1.854,0,0,0-1.851,1.852v37.2a1.876,1.876,0,0,0,1.851,1.851h52.731a1.876,1.876,0,0,0,1.852-1.851v-37.2a1.876,1.876,0,0,0-1.852-1.852Z" transform="translate(-2045.241 -1900.357)" fill="#ffa891"></path>
      </g>
    </g>
  </g>
</svg>
