<?xml version="1.0" encoding="UTF-8"?>
<svg xmlns="http://www.w3.org/2000/svg" width="118.977" height="106" viewBox="0 0 118.977 106">
  <g id="Group_1152" data-name="Group 1152" transform="translate(-1248 -96)">
    <circle id="Ellipse_154" data-name="Ellipse 154" cx="53" cy="53" r="53" transform="translate(1248 96)" fill="#e5e5e8"></circle>
    <path id="Path_936" data-name="Path 936" d="M-21445.316-12693.361v-8.879l-1.418-5.244-6.018-.8-84.6.8v26.759l2.775,1.5h87.035l3.238-2.928Z" transform="translate(22810 12836)" fill="#fff"></path>
    <g id="Group_1151" data-name="Group 1151" transform="translate(-1284.779 -617.518)">
      <path id="Path_927" data-name="Path 927" d="M2562.031,765.193c.041-.017.08-.039.122-.056-.045-.152-.086-.3-.122-.461Z" transform="translate(-2.633 -20.283)" fill="#2c4141"></path>
      <path id="Path_929" data-name="Path 929" d="M2698.775,819.281v6.08h-3.242v-6.08h-3.619v7.89a1.807,1.807,0,0,0,1.809,1.809h6.862a1.807,1.807,0,0,0,1.809-1.809v-9.046A6.29,6.29,0,0,1,2698.775,819.281Z" transform="translate(-57.336 -42.794)" fill="#ffa891"></path>
      <path id="Path_937" data-name="Path 937" d="M2698.775,819.281v6.08h-3.242v-6.08h-3.619v7.89a1.807,1.807,0,0,0,1.809,1.809h6.862a1.807,1.807,0,0,0,1.809-1.809v-9.046A6.29,6.29,0,0,1,2698.775,819.281Z" transform="translate(-130.336 -42.794)" fill="#ffa891"></path>
      <path id="Path_930" data-name="Path 930" d="M2649.945,794.121h-1.805v7.953a2.725,2.725,0,0,1-2.719,2.718h-83.3a2.724,2.724,0,0,1-2.719-2.718v-7.953h-1.809a1.809,1.809,0,0,1-1.81-1.81v9.763a6.362,6.362,0,0,0,5.672,6.3c.216.021.44.032.666.032h83.322a6.352,6.352,0,0,0,6.316-6.335v-9.763A1.808,1.808,0,0,1,2649.945,794.121Z" transform="translate(0 -31.922)" fill="#2c4141"></path>
      <path id="Path_931" data-name="Path 931" d="M2665.794,764.5h-58.518a4.748,4.748,0,0,1-3.123,3.619h61.64a2.724,2.724,0,0,1,2.719,2.718v7.953h1.805a1.808,1.808,0,0,1,1.811,1.809v-9.761A6.343,6.343,0,0,0,2665.794,764.5Z" transform="translate(-20.374 -20.208)" fill="#2c4141"></path>
      <path id="Path_932" data-name="Path 932" d="M2557.589,779.2h1.809v-7.953a2.724,2.724,0,0,1,2.719-2.718h.39a4.775,4.775,0,0,1-2.987-3.056c-.042.017-.081.039-.122.056v3.825a1.806,1.806,0,0,1-3.493.648,6.341,6.341,0,0,0-.126,1.244v9.761A1.809,1.809,0,0,1,2557.589,779.2Z" transform="translate(0 -20.618)" fill="#2c4141"></path>
      <path id="Path_933" data-name="Path 933" d="M2557.589,750.547a1.809,1.809,0,0,0,1.809-1.811v-4.342a4.759,4.759,0,0,1-.1-.963v-2.07a4.707,4.707,0,0,1,.1-.961v-22.07a1.809,1.809,0,1,0-3.619,0v30.407a1.825,1.825,0,0,0,.126.648A1.8,1.8,0,0,0,2557.589,750.547Z" transform="translate(0 0)" fill="#2c4141"></path>
      <path id="Path_934" data-name="Path 934" d="M2649.945,789.186h-92.355a1.809,1.809,0,1,0,0,3.619h92.355a1.809,1.809,0,1,0,0-3.619Z" transform="translate(0 -30.605)" fill="#2c4141"></path>
      <path id="Path_935" data-name="Path 935" d="M2561.861,758.056a4.759,4.759,0,0,0,.1.963c.037.157.077.31.122.461a4.775,4.775,0,0,0,2.987,3.056,4.675,4.675,0,0,0,1.537.262h18.2a4.761,4.761,0,0,0,4.659-3.881,4.8,4.8,0,0,0,.083-.861v-2.07a4.749,4.749,0,0,0-4.742-4.742h-18.2a4.741,4.741,0,0,0-4.744,4.742Zm24.064-2.07v2.07a1.123,1.123,0,0,1-1.119,1.125h-18.2a1.123,1.123,0,0,1-1.12-1.125v-2.07a1.12,1.12,0,0,1,1.12-1.121h18.2A1.12,1.12,0,0,1,2585.925,755.986Z" transform="translate(-2.562 -14.625)" fill="#2c4141"></path>
    </g>
  </g>
</svg>
